<mxfile host="app.diagrams.net" modified="2024-03-25T13:16:01.207Z" agent="Mozilla/5.0 (Windows NT 10.0; Win64; x64) AppleWebKit/537.36 (KHTML, like Gecko) Chrome/122.0.0.0 Safari/537.36" etag="h_t1qO8kPEocZ-dEMDYu" version="24.1.0" type="github">
  <diagram name="Página-1" id="alKp1R0HNNUOvfws8MKY">
    <mxGraphModel dx="1467" dy="780" grid="1" gridSize="10" guides="1" tooltips="1" connect="1" arrows="1" fold="1" page="1" pageScale="1" pageWidth="827" pageHeight="1169" math="0" shadow="0">
      <root>
        <mxCell id="0" />
        <mxCell id="1" parent="0" />
        <mxCell id="Kwb9T7wb9IENg8nRnX77-1" value="CASA" style="rhombus;whiteSpace=wrap;html=1;" vertex="1" parent="1">
          <mxGeometry x="374" y="50" width="80" height="80" as="geometry" />
        </mxCell>
        <mxCell id="Kwb9T7wb9IENg8nRnX77-2" value="" style="endArrow=classic;html=1;rounded=0;" edge="1" parent="1">
          <mxGeometry width="50" height="50" relative="1" as="geometry">
            <mxPoint x="414" y="140" as="sourcePoint" />
            <mxPoint x="414" y="200" as="targetPoint" />
          </mxGeometry>
        </mxCell>
        <mxCell id="Kwb9T7wb9IENg8nRnX77-3" value="&amp;nbsp;SÓ POSSO&amp;nbsp;&lt;div&gt;TER CÃO OU GATO.&lt;/div&gt;" style="ellipse;shape=cloud;whiteSpace=wrap;html=1;" vertex="1" parent="1">
          <mxGeometry x="359" y="200" width="110" height="90" as="geometry" />
        </mxCell>
        <mxCell id="Kwb9T7wb9IENg8nRnX77-9" value="CÃO" style="swimlane;fontStyle=0;childLayout=stackLayout;horizontal=1;startSize=26;fillColor=none;horizontalStack=0;resizeParent=1;resizeParentMax=0;resizeLast=0;collapsible=1;marginBottom=0;whiteSpace=wrap;html=1;" vertex="1" parent="1">
          <mxGeometry x="170" y="340" width="140" height="82" as="geometry" />
        </mxCell>
        <mxCell id="Kwb9T7wb9IENg8nRnX77-10" value="CHOPPER" style="text;strokeColor=none;fillColor=none;align=left;verticalAlign=top;spacingLeft=4;spacingRight=4;overflow=hidden;rotatable=0;points=[[0,0.5],[1,0.5]];portConstraint=eastwest;whiteSpace=wrap;html=1;dashed=1;" vertex="1" parent="Kwb9T7wb9IENg8nRnX77-9">
          <mxGeometry y="26" width="140" height="26" as="geometry" />
        </mxCell>
        <mxCell id="Kwb9T7wb9IENg8nRnX77-11" value="ZORO" style="text;strokeColor=default;fillColor=none;align=left;verticalAlign=top;spacingLeft=4;spacingRight=4;overflow=hidden;rotatable=0;points=[[0,0.5],[1,0.5]];portConstraint=eastwest;whiteSpace=wrap;html=1;dashed=1;strokeWidth=1;" vertex="1" parent="Kwb9T7wb9IENg8nRnX77-9">
          <mxGeometry y="52" width="140" height="30" as="geometry" />
        </mxCell>
        <mxCell id="Kwb9T7wb9IENg8nRnX77-13" value="" style="endArrow=classic;html=1;rounded=0;" edge="1" parent="1">
          <mxGeometry width="50" height="50" relative="1" as="geometry">
            <mxPoint x="370" y="280" as="sourcePoint" />
            <mxPoint x="320" y="330" as="targetPoint" />
          </mxGeometry>
        </mxCell>
        <mxCell id="Kwb9T7wb9IENg8nRnX77-14" value="GATO" style="swimlane;fontStyle=0;childLayout=stackLayout;horizontal=1;startSize=26;fillColor=none;horizontalStack=0;resizeParent=1;resizeParentMax=0;resizeLast=0;collapsible=1;marginBottom=0;whiteSpace=wrap;html=1;" vertex="1" parent="1">
          <mxGeometry x="500" y="340" width="140" height="52" as="geometry" />
        </mxCell>
        <mxCell id="Kwb9T7wb9IENg8nRnX77-15" value="NAMI" style="text;strokeColor=none;fillColor=none;align=left;verticalAlign=top;spacingLeft=4;spacingRight=4;overflow=hidden;rotatable=0;points=[[0,0.5],[1,0.5]];portConstraint=eastwest;whiteSpace=wrap;html=1;dashed=1;strokeWidth=1;" vertex="1" parent="Kwb9T7wb9IENg8nRnX77-14">
          <mxGeometry y="26" width="140" height="26" as="geometry" />
        </mxCell>
        <mxCell id="Kwb9T7wb9IENg8nRnX77-18" value="" style="endArrow=classic;html=1;rounded=0;" edge="1" parent="1">
          <mxGeometry width="50" height="50" relative="1" as="geometry">
            <mxPoint x="454" y="280" as="sourcePoint" />
            <mxPoint x="490" y="330" as="targetPoint" />
          </mxGeometry>
        </mxCell>
        <mxCell id="Kwb9T7wb9IENg8nRnX77-20" value="=HOUSE DO CHOPPER=" style="verticalAlign=top;align=left;spacingTop=8;spacingLeft=2;spacingRight=12;shape=cube;size=10;direction=south;fontStyle=4;html=1;whiteSpace=wrap;" vertex="1" parent="1">
          <mxGeometry x="80" y="650" width="160" height="70" as="geometry" />
        </mxCell>
        <mxCell id="Kwb9T7wb9IENg8nRnX77-21" value="=== HOUSE DO ZORO ===" style="verticalAlign=top;align=left;spacingTop=8;spacingLeft=2;spacingRight=12;shape=cube;size=10;direction=south;fontStyle=4;html=1;whiteSpace=wrap;" vertex="1" parent="1">
          <mxGeometry x="333.5" y="650" width="166.5" height="70" as="geometry" />
        </mxCell>
        <mxCell id="Kwb9T7wb9IENg8nRnX77-22" value="=== HOUSE DA NAMI ===" style="verticalAlign=top;align=left;spacingTop=8;spacingLeft=2;spacingRight=12;shape=cube;size=10;direction=south;fontStyle=4;html=1;whiteSpace=wrap;" vertex="1" parent="1">
          <mxGeometry x="590" y="650" width="170" height="70" as="geometry" />
        </mxCell>
        <mxCell id="Kwb9T7wb9IENg8nRnX77-26" value="CADA PET POSSUI A SUA HOUSE" style="ellipse;whiteSpace=wrap;html=1;aspect=fixed;" vertex="1" parent="1">
          <mxGeometry x="350" y="481" width="104" height="104" as="geometry" />
        </mxCell>
        <mxCell id="Kwb9T7wb9IENg8nRnX77-27" value="" style="endArrow=classic;html=1;rounded=0;" edge="1" parent="1">
          <mxGeometry width="50" height="50" relative="1" as="geometry">
            <mxPoint x="310" y="433" as="sourcePoint" />
            <mxPoint x="350" y="481" as="targetPoint" />
          </mxGeometry>
        </mxCell>
        <mxCell id="Kwb9T7wb9IENg8nRnX77-28" value="" style="endArrow=classic;html=1;rounded=0;" edge="1" parent="1">
          <mxGeometry width="50" height="50" relative="1" as="geometry">
            <mxPoint x="510" y="400" as="sourcePoint" />
            <mxPoint x="450" y="480" as="targetPoint" />
          </mxGeometry>
        </mxCell>
        <mxCell id="Kwb9T7wb9IENg8nRnX77-29" value="" style="endArrow=classic;html=1;rounded=0;" edge="1" parent="1">
          <mxGeometry width="50" height="50" relative="1" as="geometry">
            <mxPoint x="340" y="550" as="sourcePoint" />
            <mxPoint x="240" y="640" as="targetPoint" />
          </mxGeometry>
        </mxCell>
        <mxCell id="Kwb9T7wb9IENg8nRnX77-30" value="" style="endArrow=classic;html=1;rounded=0;" edge="1" parent="1">
          <mxGeometry width="50" height="50" relative="1" as="geometry">
            <mxPoint x="402" y="590" as="sourcePoint" />
            <mxPoint x="402" y="645" as="targetPoint" />
          </mxGeometry>
        </mxCell>
        <mxCell id="Kwb9T7wb9IENg8nRnX77-31" value="" style="endArrow=classic;html=1;rounded=0;" edge="1" parent="1">
          <mxGeometry width="50" height="50" relative="1" as="geometry">
            <mxPoint x="469" y="560" as="sourcePoint" />
            <mxPoint x="589" y="650" as="targetPoint" />
          </mxGeometry>
        </mxCell>
        <mxCell id="Kwb9T7wb9IENg8nRnX77-32" value="CADA VEZ QUE CHAMAR O NOME&amp;nbsp;&lt;div&gt;DE UM ANIMAL&amp;nbsp;&lt;/div&gt;&lt;div&gt;ELE FARÁ&amp;nbsp;&lt;/div&gt;&lt;div&gt;O SEU RESPECTIVO SOM&lt;/div&gt;" style="ellipse;shape=cloud;whiteSpace=wrap;html=1;" vertex="1" parent="1">
          <mxGeometry x="284" y="790" width="260" height="150" as="geometry" />
        </mxCell>
        <mxCell id="Kwb9T7wb9IENg8nRnX77-34" value="" style="endArrow=open;endFill=1;endSize=12;html=1;rounded=0;" edge="1" parent="1">
          <mxGeometry width="160" relative="1" as="geometry">
            <mxPoint x="240" y="730" as="sourcePoint" />
            <mxPoint x="310" y="820" as="targetPoint" />
          </mxGeometry>
        </mxCell>
        <mxCell id="Kwb9T7wb9IENg8nRnX77-35" value="" style="endArrow=open;endFill=1;endSize=12;html=1;rounded=0;" edge="1" parent="1">
          <mxGeometry width="160" relative="1" as="geometry">
            <mxPoint x="412" y="730" as="sourcePoint" />
            <mxPoint x="412" y="790" as="targetPoint" />
          </mxGeometry>
        </mxCell>
        <mxCell id="Kwb9T7wb9IENg8nRnX77-36" value="" style="endArrow=open;endFill=1;endSize=12;html=1;rounded=0;" edge="1" parent="1">
          <mxGeometry width="160" relative="1" as="geometry">
            <mxPoint x="590" y="730" as="sourcePoint" />
            <mxPoint x="520" y="820" as="targetPoint" />
          </mxGeometry>
        </mxCell>
        <mxCell id="Kwb9T7wb9IENg8nRnX77-37" value="SONS" style="swimlane;fontStyle=0;childLayout=stackLayout;horizontal=1;startSize=26;fillColor=none;horizontalStack=0;resizeParent=1;resizeParentMax=0;resizeLast=0;collapsible=1;marginBottom=0;whiteSpace=wrap;html=1;" vertex="1" parent="1">
          <mxGeometry x="346.75" y="1020" width="140" height="104" as="geometry" />
        </mxCell>
        <mxCell id="Kwb9T7wb9IENg8nRnX77-38" value="CHOPPER: LATIDO" style="text;strokeColor=none;fillColor=none;align=left;verticalAlign=top;spacingLeft=4;spacingRight=4;overflow=hidden;rotatable=0;points=[[0,0.5],[1,0.5]];portConstraint=eastwest;whiteSpace=wrap;html=1;" vertex="1" parent="Kwb9T7wb9IENg8nRnX77-37">
          <mxGeometry y="26" width="140" height="26" as="geometry" />
        </mxCell>
        <mxCell id="Kwb9T7wb9IENg8nRnX77-39" value="ZORO: LATIDO" style="text;strokeColor=none;fillColor=none;align=left;verticalAlign=top;spacingLeft=4;spacingRight=4;overflow=hidden;rotatable=0;points=[[0,0.5],[1,0.5]];portConstraint=eastwest;whiteSpace=wrap;html=1;" vertex="1" parent="Kwb9T7wb9IENg8nRnX77-37">
          <mxGeometry y="52" width="140" height="26" as="geometry" />
        </mxCell>
        <mxCell id="Kwb9T7wb9IENg8nRnX77-40" value="NAMI: MIADO" style="text;strokeColor=none;fillColor=none;align=left;verticalAlign=top;spacingLeft=4;spacingRight=4;overflow=hidden;rotatable=0;points=[[0,0.5],[1,0.5]];portConstraint=eastwest;whiteSpace=wrap;html=1;" vertex="1" parent="Kwb9T7wb9IENg8nRnX77-37">
          <mxGeometry y="78" width="140" height="26" as="geometry" />
        </mxCell>
        <mxCell id="Kwb9T7wb9IENg8nRnX77-41" value="" style="endArrow=open;endFill=1;endSize=12;html=1;rounded=0;" edge="1" parent="1">
          <mxGeometry width="160" relative="1" as="geometry">
            <mxPoint x="416.16" y="940" as="sourcePoint" />
            <mxPoint x="416.16" y="1010" as="targetPoint" />
          </mxGeometry>
        </mxCell>
      </root>
    </mxGraphModel>
  </diagram>
</mxfile>
